# xmcd
#
# Track frame offsets:
#	150
#	9733
#	29594
#	53712
#	78649
#	91872
#	117324
#	134961
#	146909
#
# Disc length: 2365 seconds
#
# Revision: 1
# Processed by: cddbd v1.5.1PL0 Copyright (c) Steve Scherf et al.
# Submitted via: EasyCDDAExtractor 6.5.0.1
#
DISCID=83093b09
DTITLE=Electric Light Orchestra - El Dorado
DYEAR=1974
DGENRE=Blues
TTITLE0=El dorado oberture
TTITLE1=Can't get it out  of my head
TTITLE2=Boy blue
TTITLE3=Laredo tornado
TTITLE4=Poor boy
TTITLE5=Mister kingdom
TTITLE6=Nobody's child
TTITLE7=Alusions in g mayor
TTITLE8=El Dorado finale
EXTD=
EXTT0=
EXTT1=
EXTT2=
EXTT3=
EXTT4=
EXTT5=
EXTT6=
EXTT7=
EXTT8=
PLAYORDER=
